<svg version="1.1" xmlns="http://www.w3.org/2000/svg" xmlns:xlink="http://www.w3.org/1999/xlink" width="291" height="45"><defs/><g><path fill="rgb(255,255,255)" stroke="none" paint-order="stroke fill markers" fill-rule="evenodd" d=" M 24.99999237060547 1.9999616742134094 C 24.99999237060547 1.9999616742134094 279.99999237060547 1.9999616742134094 279.99999237060547 1.9999616742134094 C 285.52283477783203 1.9999616742134094 289.99999237060547 6.477102041244507 289.99999237060547 11.999960660934448 C 289.99999237060547 11.999960660934448 289.99999237060547 33.999939918518066 289.99999237060547 33.999939918518066 C 289.99999237060547 39.52279853820801 285.52283477783203 43.999938905239105 279.99999237060547 43.999938905239105 C 279.99999237060547 43.999938905239105 24.99999237060547 43.999938905239105 24.99999237060547 43.999938905239105 C 19.477149963378906 43.999938905239105 14.999992370605469 39.52279853820801 14.999992370605469 33.999939918518066 C 14.999992370605469 33.999939918518066 14.999992370605469 11.999960660934448 14.999992370605469 11.999960660934448 C 14.999992370605469 6.477102041244507 19.477149963378906 1.9999616742134094 24.99999237060547 1.9999616742134094 Z M 14.999992370605469 21.999959647655487 C 14.999992370605469 21.999959647655487 12.499992370605469 29.499935746192932 7 29.999977350234985 C 1.499969482421875 30.499926388263702 18.999969482421875 36.99991184473038 18.999969482421875 36.99991184473038 C 18.999969482421875 36.99991184473038 18.999969482421875 22.999950289726257 18.999969482421875 22.999950289726257 C 18.999969482421875 22.999950289726257 14.999992370605469 21.999959647655487 14.999992370605469 21.999959647655487"/></g></svg>