<svg version="1.1" xmlns="http://www.w3.org/2000/svg" xmlns:xlink="http://www.w3.org/1999/xlink" width="291" height="45"><defs/><g><path fill="rgb(255,255,255)" stroke="none" paint-order="stroke fill markers" fill-rule="evenodd" d=" M 24.99999237060547 1.9999930262565613 C 24.99999237060547 1.9999930262565613 279.99999237060547 1.9999930262565613 279.99999237060547 1.9999930262565613 C 285.52283477783203 1.9999930262565613 289.99999237060547 6.477133393287659 289.99999237060547 11.9999920129776 C 289.99999237060547 11.9999920129776 289.99999237060547 33.99997127056122 289.99999237060547 33.99997127056122 C 289.99999237060547 39.52282989025116 285.52283477783203 43.99997025728226 279.99999237060547 43.99997025728226 C 279.99999237060547 43.99997025728226 24.99999237060547 43.99997025728226 24.99999237060547 43.99997025728226 C 19.477149963378906 43.99997025728226 14.999992370605469 39.52282989025116 14.999992370605469 33.99997127056122 C 14.999992370605469 33.99997127056122 14.999992370605469 11.9999920129776 14.999992370605469 11.9999920129776 C 14.999992370605469 6.477133393287659 19.477149963378906 1.9999930262565613 24.99999237060547 1.9999930262565613 Z M 14.999992370605469 21.99999099969864 C 14.999992370605469 21.99999099969864 12.499992370605469 29.499967098236084 7 29.9999161362648 C 1.499969482421875 30.499957740306854 18.999969482421875 36.99994319677353 18.999969482421875 36.99994319677353 C 18.999969482421875 36.99994319677353 18.999969482421875 22.99998164176941 18.999969482421875 22.99998164176941 C 18.999969482421875 22.99998164176941 14.999992370605469 21.99999099969864 14.999992370605469 21.99999099969864"/></g></svg>