<svg version="1.1" xmlns="http://www.w3.org/2000/svg" xmlns:xlink="http://www.w3.org/1999/xlink" width="291" height="45"><defs/><g><path fill="rgb(255,255,255)" stroke="none" paint-order="stroke fill markers" fill-rule="evenodd" d=" M 24.99999237060547 1.999931812286377 C 24.99999237060547 1.999931812286377 279.99999237060547 1.999931812286377 279.99999237060547 1.999931812286377 C 285.52283477783203 1.999931812286377 289.99999237060547 6.477072179317474 289.99999237060547 11.999930799007416 C 289.99999237060547 11.999930799007416 289.99999237060547 33.999910056591034 289.99999237060547 33.999910056591034 C 289.99999237060547 39.522768676280975 285.52283477783203 43.99990904331207 279.99999237060547 43.99990904331207 C 279.99999237060547 43.99990904331207 24.99999237060547 43.99990904331207 24.99999237060547 43.99990904331207 C 19.477149963378906 43.99990904331207 14.999992370605469 39.522768676280975 14.999992370605469 33.999910056591034 C 14.999992370605469 33.999910056591034 14.999992370605469 11.999930799007416 14.999992370605469 11.999930799007416 C 14.999992370605469 6.477072179317474 19.477149963378906 1.999931812286377 24.99999237060547 1.999931812286377 Z M 14.999992370605469 21.999929785728455 C 14.999992370605469 21.999929785728455 12.499992370605469 29.499998450279236 7 29.999947488307953 C 1.499969482421875 30.499989092350006 18.999969482421875 36.99997454881668 18.999969482421875 36.99997454881668 C 18.999969482421875 36.99997454881668 18.999969482421875 22.999920427799225 18.999969482421875 22.999920427799225 C 18.999969482421875 22.999920427799225 14.999992370605469 21.999929785728455 14.999992370605469 21.999929785728455"/></g></svg>