<svg version="1.1" xmlns="http://www.w3.org/2000/svg" xmlns:xlink="http://www.w3.org/1999/xlink" width="13" height="21"><defs/><g><path fill="rgb(255,255,255)" stroke="none" paint-order="stroke fill markers" fill-rule="evenodd" d=" M 1.0057265758514404 3.0582463145256042 C 1.0057265758514404 2.607758939266205 1.2326056957244873 2.2894893884658813 1.6834194660186768 2.103547751903534 C 2.1371777057647705 1.9207987189292908 2.540879964828491 1.9940084218978882 2.897160768508911 2.32614928483963 C 2.897160768508911 2.32614928483963 10.681640625 9.73695284128189 10.681640625 9.73695284128189 C 10.905497789382935 9.948325216770172 11.011653661727905 10.201421618461609 10.999953269958496 10.497342944145203 C 10.999953269958496 10.78148466348648 10.893719911575317 11.026654601097107 10.681640625 11.229329884052277 C 10.681640625 11.229329884052277 2.897160768508911 18.668426513671875 2.897160768508911 18.668426513671875 C 2.540879964828491 19.008934199810028 2.1371777057647705 19.082253992557526 1.6834194660186768 18.89069777727127 C 1.2326056957244873 18.705086410045624 1.0057265758514404 18.37845003604889 1.0057265758514404 17.911008834838867 C 1.0057265758514404 17.911008834838867 1.0057265758514404 3.0582463145256042 1.0057265758514404 3.0582463145256042 C 1.0057265758514404 3.0582463145256042 1.0057265758514404 3.0582463145256042 1.0057265758514404 3.0582463145256042 Z"/></g></svg>