<svg version="1.1" xmlns="http://www.w3.org/2000/svg" xmlns:xlink="http://www.w3.org/1999/xlink" width="18" height="17"><defs/><g><path fill="rgb(245,197,6)" stroke="none" paint-order="stroke fill markers" fill-rule="evenodd" d=" M 11.37083125114441 8.976949572563171 C 11.37083125114441 8.976949572563171 11.37083125114441 8.019058406352997 11.37083125114441 8.019058406352997 C 11.37083125114441 8.019058406352997 16.999881982803345 8.019058406352997 16.999881982803345 8.019058406352997 C 16.999881982803345 8.019058406352997 16.999881982803345 8.976949572563171 16.999881982803345 8.976949572563171 C 16.999881982803345 8.976949572563171 11.37083125114441 8.976949572563171 11.37083125114441 8.976949572563171 Z M 11.18486475944519 6.176816046237946 C 11.18486475944519 6.176816046237946 16.260045289993286 3.7486758828163147 16.260045289993286 3.7486758828163147 C 16.260045289993286 3.7486758828163147 16.67568039894104 4.611999928951263 16.67568039894104 4.611999928951263 C 16.67568039894104 4.611999928951263 11.599260091781616 7.040580451488495 11.599260091781616 7.040580451488495 C 11.599260091781616 7.040580451488495 11.18486475944519 6.176816046237946 11.18486475944519 6.176816046237946 Z M 10.751252889633179 4.0408541560173035 C 10.751252889633179 4.0408541560173035 14.239131927490234 1.0002845525741577 14.239131927490234 1.0002845525741577 C 14.239131927490234 1.0002845525741577 14.758985757827759 1.593448281288147 14.758985757827759 1.593448281288147 C 14.758985757827759 1.593448281288147 11.269789457321167 4.6345683336257935 11.269789457321167 4.6345683336257935 C 11.269789457321167 4.6345683336257935 10.751252889633179 4.0408541560173035 10.751252889633179 4.0408541560173035 Z M 5.260747194290161 11.347292602062225 C 5.260747194290161 11.347292602062225 5.260747194290161 8.794861078262329 5.260747194290161 8.794861078262329 C 5.260747194290161 8.794861078262329 5.260747194290161 8.200706541538239 5.260747194290161 8.200706541538239 C 5.260747194290161 8.200706541538239 5.260747194290161 5.648275017738342 5.260747194290161 5.648275017738342 C 6.708418846130371 4.328298568725586 8.469056606292725 3.652677595615387 9.676056623458862 2.178795635700226 C 9.676056623458862 2.178795635700226 9.676056623458862 8.200706541538239 9.676056623458862 8.200706541538239 C 9.676056623458862 8.200706541538239 9.676056623458862 8.794861078262329 9.676056623458862 8.794861078262329 C 9.676056623458862 8.794861078262329 9.676056623458862 14.816551804542542 9.676056623458862 14.816551804542542 C 8.469056606292725 13.34200930595398 6.708728790283203 12.66638833284378 5.260747194290161 11.347292602062225 Z M 1.9999797344207764 5.658513367176056 C 1.9999797344207764 5.658513367176056 4.914927005767822 5.658513367176056 4.914927005767822 5.658513367176056 C 4.914927005767822 5.658513367176056 4.914927005767822 11.304908037185669 4.914927005767822 11.304908037185669 C 4.914927005767822 11.304908037185669 1.9999797344207764 11.304908037185669 1.9999797344207764 11.304908037185669 C 1.9999797344207764 11.304908037185669 1.9999797344207764 5.658513367176056 1.9999797344207764 5.658513367176056 Z M 14.758985757827759 15.405422031879425 C 14.758985757827759 15.405422031879425 14.24044919013977 15.999466478824615 14.24044919013977 15.999466478824615 C 14.24044919013977 15.999466478824615 10.751252889633179 12.957906067371368 10.751252889633179 12.957906067371368 C 10.751252889633179 12.957906067371368 11.271106719970703 12.364522159099579 11.271106719970703 12.364522159099579 C 11.271106719970703 12.364522159099579 14.758985757827759 15.405422031879425 14.758985757827759 15.405422031879425 Z M 11.408799409866333 10.006289005279541 C 11.408799409866333 10.006289005279541 16.48390245437622 12.433878719806671 16.48390245437622 12.433878719806671 C 16.48390245437622 12.433878719806671 16.069584608078003 13.298303663730621 16.069584608078003 13.298303663730621 C 16.069584608078003 13.298303663730621 10.993164300918579 10.86950296163559 10.993164300918579 10.86950296163559 C 10.993164300918579 10.86950296163559 11.408799409866333 10.006289005279541 11.408799409866333 10.006289005279541 Z"/></g></svg>